<svg width="192" height="192" viewBox="0 0 192 192" fill="none" xmlns="http://www.w3.org/2000/svg">
<path d="M123.722 87C121.851 83.5684 118.963 80.8865 115.506 79.3702C112.048 77.8538 108.215 77.5878 104.6 78.6133C100.985 79.6389 97.7911 81.8987 95.513 85.0423C93.2348 88.1859 92 92.0376 92 96C92 99.9624 93.2348 103.814 95.513 106.958C97.7912 110.101 100.985 112.361 104.6 113.387C108.215 114.412 112.048 114.146 115.506 112.63C118.963 111.113 121.851 108.432 123.722 105" stroke="black" stroke-width="10" stroke-miterlimit="6" stroke-linecap="round" stroke-linejoin="round"/>
<path d="M47 113.999V78L61 95.9995L75 113.999V78" stroke="black" stroke-width="10" stroke-miterlimit="6" stroke-linecap="round" stroke-linejoin="round"/>
<path d="M29 78V113.999" stroke="black" stroke-width="10" stroke-miterlimit="6" stroke-linecap="round" stroke-linejoin="round"/>
<path d="M139 79L145 87.25L151 95.5" stroke="black" stroke-width="10" stroke-miterlimit="6" stroke-linecap="round" stroke-linejoin="round"/>
<path d="M163 79L157 87.25L151 95.5" stroke="black" stroke-width="10" stroke-miterlimit="6" stroke-linecap="round" stroke-linejoin="round"/>
<path d="M151 96V112.5" stroke="black" stroke-width="10" stroke-miterlimit="6" stroke-linecap="round" stroke-linejoin="round"/>
</svg>
